<?xml version="1.0" encoding="UTF-8" standalone="no"?>
<svg
   xmlns:dc="http://purl.org/dc/elements/1.1/"
   xmlns:cc="http://creativecommons.org/ns#"
   xmlns:rdf="http://www.w3.org/1999/02/22-rdf-syntax-ns#"
   xmlns:svg="http://www.w3.org/2000/svg"
   xmlns="http://www.w3.org/2000/svg"
   xmlns:sodipodi="http://sodipodi.sourceforge.net/DTD/sodipodi-0.dtd"
   xmlns:inkscape="http://www.inkscape.org/namespaces/inkscape"
   width="48"
   height="48"
   viewBox="0 0 48 48"
   id="svg2"
   version="1.1"
   inkscape:version="0.48.5 r10040"
   sodipodi:docname="branch.svg">
  <metadata
     id="metadata12">
    <rdf:RDF>
      <cc:Work
         rdf:about="">
        <dc:format>image/svg+xml</dc:format>
        <dc:type
           rdf:resource="http://purl.org/dc/dcmitype/StillImage" />
        <dc:title></dc:title>
      </cc:Work>
    </rdf:RDF>
  </metadata>
  <defs
     id="defs10" />
  <sodipodi:namedview
     pagecolor="#ffffff"
     bordercolor="#666666"
     borderopacity="1"
     objecttolerance="10"
     gridtolerance="10"
     guidetolerance="10"
     inkscape:pageopacity="0"
     inkscape:pageshadow="2"
     inkscape:window-width="1920"
     inkscape:window-height="1180"
     id="namedview8"
     showgrid="false"
     inkscape:zoom="13.906433"
     inkscape:cx="31.100452"
     inkscape:cy="28.31455"
     inkscape:window-x="-2"
     inkscape:window-y="-3"
     inkscape:window-maximized="1"
     inkscape:current-layer="svg2" />
  <path
     d="M0 0h48v48h-48z"
     fill="none"
     id="path4" />
  <path
     style="fill:#000000;fill-opacity:1"
     d="M 17.46875 2 C 14.983341 2 12.96875 4.0145905 12.96875 6.5 C 12.96875 8.1650123 13.874574 9.5966447 15.21875 10.375 L 15.21875 26.90625 C 15.202961 37.719303 15.217154 32.413807 15.21875 37.625 C 13.874574 38.403355 12.96875 39.834987 12.96875 41.5 C 12.96875 43.985409 14.983341 46 17.46875 46 C 19.95416 46 21.96875 43.985409 21.96875 41.5 C 21.96875 39.841182 21.054657 38.40546 19.71875 37.625 L 19.71875 30.1875 L 28.15625 30.1875 C 30.642628 30.1875 32.65625 28.173878 32.65625 25.6875 L 32.65625 21.53125 C 33.987243 20.749561 34.90625 19.311382 34.90625 17.65625 C 34.90625 15.17084 32.89166 13.15625 30.40625 13.15625 C 27.920841 13.15625 25.90625 15.17084 25.90625 17.65625 C 25.90625 19.323102 26.809616 20.784779 28.15625 21.5625 L 28.15625 25.6875 L 19.71875 25.6875 L 19.71875 10.375 C 21.054657 9.5945395 21.96875 8.1588175 21.96875 6.5 C 21.96875 4.0145905 19.95416 2 17.46875 2 z M 17.46875 4.25 C 18.711456 4.25 19.71875 5.2572951 19.71875 6.5 C 19.71875 7.7427047 18.711456 8.75 17.46875 8.75 C 16.226045 8.75 15.21875 7.7427047 15.21875 6.5 C 15.21875 5.2572951 16.226045 4.25 17.46875 4.25 z M 30.40625 15.40625 C 31.648956 15.40625 32.65625 16.413546 32.65625 17.65625 C 32.65625 18.898955 31.648956 19.90625 30.40625 19.90625 C 29.163546 19.90625 28.15625 18.898955 28.15625 17.65625 C 28.15625 16.413546 29.163546 15.40625 30.40625 15.40625 z M 17.46875 39.25 C 18.711456 39.25 19.71875 40.257294 19.71875 41.5 C 19.71875 42.742704 18.711456 43.75 17.46875 43.75 C 16.226045 43.75 15.21875 42.742704 15.21875 41.5 C 15.21875 40.257294 16.226045 39.25 17.46875 39.25 z "
     id="path6" />
</svg>
