<?xml version="1.0" encoding="UTF-8" standalone="no"?>
<svg
   xmlns:dc="http://purl.org/dc/elements/1.1/"
   xmlns:cc="http://creativecommons.org/ns#"
   xmlns:rdf="http://www.w3.org/1999/02/22-rdf-syntax-ns#"
   xmlns:svg="http://www.w3.org/2000/svg"
   xmlns="http://www.w3.org/2000/svg"
   xmlns:sodipodi="http://sodipodi.sourceforge.net/DTD/sodipodi-0.dtd"
   xmlns:inkscape="http://www.inkscape.org/namespaces/inkscape"
   width="48"
   height="48"
   viewBox="0 0 48 48"
   id="svg2"
   version="1.1"
   inkscape:version="0.48.5 r10040"
   sodipodi:docname="files.svg">
  <metadata
     id="metadata12">
    <rdf:RDF>
      <cc:Work
         rdf:about="">
        <dc:format>image/svg+xml</dc:format>
        <dc:type
           rdf:resource="http://purl.org/dc/dcmitype/StillImage" />
        <dc:title></dc:title>
      </cc:Work>
    </rdf:RDF>
  </metadata>
  <defs
     id="defs10" />
  <sodipodi:namedview
     pagecolor="#ffffff"
     bordercolor="#666666"
     borderopacity="1"
     objecttolerance="10"
     gridtolerance="10"
     guidetolerance="10"
     inkscape:pageopacity="0"
     inkscape:pageshadow="2"
     inkscape:window-width="1920"
     inkscape:window-height="1025"
     id="namedview8"
     showgrid="true"
     inkscape:snap-global="true"
     inkscape:zoom="9.8333333"
     inkscape:cx="10.779661"
     inkscape:cy="32.206676"
     inkscape:window-x="-2"
     inkscape:window-y="-3"
     inkscape:window-maximized="1"
     inkscape:current-layer="svg2">
    <inkscape:grid
       type="xygrid"
       id="grid3007" />
  </sodipodi:namedview>
  <path
     d="M 0,4 H 44 V 48 H 0 z"
     id="path4"
     inkscape:connector-curvature="0"
     style="fill:none" />
  <g
     id="g3020"
     transform="translate(5.6575,-2)">
    <path
       inkscape:connector-curvature="0"
       id="path6"
       d="M 3.6666667,11.333333 C 1.6408333,11.333333 0.02864583,12.974167 0.02864583,15 L 0,44.333333 C 0,46.359167 1.6121875,48 3.6380208,48 l 22.0286462,0 c 2.025833,0 3.666666,-1.640833 3.666666,-3.666667 l -25.6666663,0 0,-33 z" />
    <path
       id="path6-2"
       d="M 25.685,4 H 11.018333 C 8.9925,4 7.37,5.6408333 7.37,7.6666667 L 7.3516667,37 c 0,2.025833 1.6225,3.666667 3.6483333,3.666667 H 33.018333 C 35.044167,40.666667 36.685,39.025833 36.685,37 V 15 l -11,-11 z m 3.666667,29.333333 H 14.685 v -3.666666 h 14.666667 v 3.666666 z m 0,-7.333333 H 14.685 V 22.333333 H 29.351667 V 26 z m -5.5,-9.166667 V 6.75 L 33.935,16.833333 H 23.851667 z"
       inkscape:connector-curvature="0" />
  </g>
</svg>
