<?xml version="1.0" encoding="UTF-8" standalone="no"?>
<svg
   xmlns:dc="http://purl.org/dc/elements/1.1/"
   xmlns:cc="http://creativecommons.org/ns#"
   xmlns:rdf="http://www.w3.org/1999/02/22-rdf-syntax-ns#"
   xmlns:svg="http://www.w3.org/2000/svg"
   xmlns="http://www.w3.org/2000/svg"
   xmlns:sodipodi="http://sodipodi.sourceforge.net/DTD/sodipodi-0.dtd"
   xmlns:inkscape="http://www.inkscape.org/namespaces/inkscape"
   width="24"
   height="24"
   viewBox="0 0 24 24"
   id="svg2"
   version="1.1"
   inkscape:version="0.91 r13725"
   sodipodi:docname="image_loading.svg">
  <metadata
     id="metadata12">
    <rdf:RDF>
      <cc:Work
         rdf:about="">
        <dc:format>image/svg+xml</dc:format>
        <dc:type
           rdf:resource="http://purl.org/dc/dcmitype/StillImage" />
        <dc:title></dc:title>
      </cc:Work>
    </rdf:RDF>
  </metadata>
  <defs
     id="defs10" />
  <sodipodi:namedview
     pagecolor="#ffffff"
     bordercolor="#666666"
     borderopacity="1"
     objecttolerance="10"
     gridtolerance="10"
     guidetolerance="10"
     inkscape:pageopacity="0"
     inkscape:pageshadow="2"
     inkscape:window-width="1920"
     inkscape:window-height="1016"
     id="namedview8"
     showgrid="false"
     inkscape:zoom="13.906433"
     inkscape:cx="12.956136"
     inkscape:cy="21.859084"
     inkscape:window-x="0"
     inkscape:window-y="27"
     inkscape:window-maximized="1"
     inkscape:current-layer="svg2" />
  <path
     d="M0 0h24v24H0z"
     fill="none"
     id="path4" />
  <path
     inkscape:connector-curvature="0"
     style="fill:none"
     d="m 31.016949,3.8644071 24,0 0,23.9999999 -24,0 0,-23.9999999 z"
     id="path6-6" />
  <g
     id="g4224">
    <path
       id="path6"
       d="M 5 3 C 3.9 3 3 3.9 3 5 L 3 19 C 3 20.1 3.9 21 5 21 L 15.189453 21 L 15.189453 19.361328 L 16.550781 18 L 5 18 L 8.5 13.5 L 11 16.509766 L 14.5 12 L 15.189453 12.919922 L 15.189453 11.029297 L 21 11.029297 L 21 5 C 21 3.9 20.1 3 19 3 L 5 3 z " />
    <path
       id="path4-3"
       d="m 16.688474,12.528405 0,3 0.005,0 -0.005,0.005 2,1.995 -2,2.000001 0.005,0.005 -0.005,0 0,2.994999 6,0 0,-2.994999 -0.005,0 0.005,-0.005 -2,-2.000001 2,-1.995 -0.005,-0.005 0.005,0 0,-3 -6,0 z"
       inkscape:connector-curvature="0" />
  </g>
</svg>
