<?xml version="1.0" encoding="UTF-8" standalone="no"?>
<svg
   xmlns:dc="http://purl.org/dc/elements/1.1/"
   xmlns:cc="http://creativecommons.org/ns#"
   xmlns:rdf="http://www.w3.org/1999/02/22-rdf-syntax-ns#"
   xmlns:svg="http://www.w3.org/2000/svg"
   xmlns="http://www.w3.org/2000/svg"
   xmlns:sodipodi="http://sodipodi.sourceforge.net/DTD/sodipodi-0.dtd"
   xmlns:inkscape="http://www.inkscape.org/namespaces/inkscape"
   height="150"
   viewBox="0 0 210 150"
   width="210"
   id="svg2"
   version="1.1"
   inkscape:version="0.91 r13725"
   sodipodi:docname="load_failed_bg.svg"
   style="fill:#000000">
  <metadata
     id="metadata12">
    <rdf:RDF>
      <cc:Work
         rdf:about="">
        <dc:format>image/svg+xml</dc:format>
        <dc:type
           rdf:resource="http://purl.org/dc/dcmitype/StillImage" />
        <dc:title></dc:title>
      </cc:Work>
    </rdf:RDF>
  </metadata>
  <defs
     id="defs10" />
  <sodipodi:namedview
     pagecolor="#ffffff"
     bordercolor="#666666"
     borderopacity="1"
     objecttolerance="10"
     gridtolerance="10"
     guidetolerance="10"
     inkscape:pageopacity="0"
     inkscape:pageshadow="2"
     inkscape:window-width="1920"
     inkscape:window-height="1171"
     id="namedview8"
     showgrid="false"
     inkscape:zoom="2.4583333"
     inkscape:cx="-61.220339"
     inkscape:cy="12"
     inkscape:window-x="0"
     inkscape:window-y="0"
     inkscape:window-maximized="1"
     inkscape:current-layer="svg2" />
  <path
     d="m 0,126 24,0 0,24 -24,0 z"
     id="path4"
     inkscape:connector-curvature="0"
     style="fill:none" />
  <path
     d="M 105,15 C 83.325,15 64.49707,27.29295 55.12207,45.29295 32.54707,47.69295 15,66.825 15,90 c 0,24.825 20.175,45 45,45 l 97.5,0 C 178.2,135 195,118.2 195,97.5 195,77.7 179.62207,61.64295 160.12207,60.29295 155.02207,34.41795 132.3,15 105,15 Z m -0.1611,71.103525 c 7.84987,-0.0375 14.28382,1.1811 21.73828,3.207975 8.61526,2.34247 22.77831,9.40432 22.77831,9.40432 4.49267,2.19713 1.19646,8.93603 -3.29589,6.7383 0,0 -14.66133,-7.04707 -21.44532,-8.89162 -6.91252,-1.8795 -12.70756,-2.99423 -19.74609,-2.95898 -6.554133,0.03 -14.5762,1.07783 -20.932614,2.92965 -6.244737,1.81935 -19.892577,8.877 -19.892577,8.877 -4.423828,2.33401 -7.924805,-4.30177 -3.500977,-6.63577 0,0 13.104889,-7.05068 21.284179,-9.43358 6.97161,-2.03107 15.684906,-3.200545 23.012699,-3.237295 z"
     id="path6"
     inkscape:connector-curvature="0"
     style="fill:#dddddd;fill-opacity:1" />
</svg>
