<?xml version="1.0" encoding="UTF-8" standalone="no"?>
<!-- Created with Inkscape (http://www.inkscape.org/) -->

<svg
   xmlns:osb="http://www.openswatchbook.org/uri/2009/osb"
   xmlns:dc="http://purl.org/dc/elements/1.1/"
   xmlns:cc="http://creativecommons.org/ns#"
   xmlns:rdf="http://www.w3.org/1999/02/22-rdf-syntax-ns#"
   xmlns:svg="http://www.w3.org/2000/svg"
   xmlns="http://www.w3.org/2000/svg"
   xmlns:sodipodi="http://sodipodi.sourceforge.net/DTD/sodipodi-0.dtd"
   xmlns:inkscape="http://www.inkscape.org/namespaces/inkscape"
   width="108"
   height="108"
   viewBox="0 0 108 108"
   id="svg2"
   version="1.1"
   inkscape:version="0.92.3 (2405546, 2018-03-11)"
   sodipodi:docname="octodroid_launcher.svg">
  <defs
     id="defs4">
    <linearGradient
       id="linearGradient4270"
       osb:paint="solid">
      <stop
         style="stop-color:#000000;stop-opacity:1;"
         offset="0"
         id="stop4272" />
    </linearGradient>
    <filter
       style="color-interpolation-filters:sRGB"
       inkscape:label="Drop Shadow"
       id="filter4378">
      <feFlood
         flood-opacity="0.498039"
         flood-color="rgb(0,0,0)"
         result="flood"
         id="feFlood4380" />
      <feComposite
         in="flood"
         in2="SourceGraphic"
         operator="in"
         result="composite1"
         id="feComposite4382" />
      <feGaussianBlur
         in="composite1"
         stdDeviation="0.5"
         result="blur"
         id="feGaussianBlur4384" />
      <feOffset
         dx="1"
         dy="1"
         result="offset"
         id="feOffset4386" />
      <feComposite
         in="SourceGraphic"
         in2="offset"
         operator="over"
         result="composite2"
         id="feComposite4388" />
    </filter>
    <filter
       style="color-interpolation-filters:sRGB"
       inkscape:label="Drop Shadow"
       id="filter4378-7">
      <feFlood
         flood-opacity="0.498039"
         flood-color="rgb(0,0,0)"
         result="flood"
         id="feFlood4380-0" />
      <feComposite
         in="flood"
         in2="SourceGraphic"
         operator="in"
         result="composite1"
         id="feComposite4382-9" />
      <feGaussianBlur
         in="composite1"
         stdDeviation="0.5"
         result="blur"
         id="feGaussianBlur4384-3" />
      <feOffset
         dx="1"
         dy="1"
         result="offset"
         id="feOffset4386-6" />
      <feComposite
         in="SourceGraphic"
         in2="offset"
         operator="over"
         result="composite2"
         id="feComposite4388-0" />
    </filter>
  </defs>
  <sodipodi:namedview
     id="base"
     pagecolor="#ffffff"
     bordercolor="#666666"
     borderopacity="1.0"
     inkscape:pageopacity="0"
     inkscape:pageshadow="2"
     inkscape:zoom="14.169946"
     inkscape:cx="-1.3144813"
     inkscape:cy="66.020013"
     inkscape:document-units="px"
     inkscape:current-layer="layer1"
     showgrid="false"
     units="px"
     inkscape:window-width="3840"
     inkscape:window-height="2065"
     inkscape:window-x="3840"
     inkscape:window-y="0"
     inkscape:window-maximized="1" />
  <metadata
     id="metadata7">
    <rdf:RDF>
      <cc:Work
         rdf:about="">
        <dc:format>image/svg+xml</dc:format>
        <dc:type
           rdf:resource="http://purl.org/dc/dcmitype/StillImage" />
        <dc:title />
      </cc:Work>
    </rdf:RDF>
  </metadata>
  <g
     inkscape:groupmode="layer"
     id="layer3"
     inkscape:label="Eyes"
     style="display:inline;opacity:1"
     transform="translate(0,-36)" />
  <g
     inkscape:label="Body"
     inkscape:groupmode="layer"
     id="layer1"
     style="display:inline">
    <path
       style="display:inline;opacity:1;fill:#808080;fill-opacity:0.25098039;stroke:none;stroke-width:0.41990086"
       d="m 46.721613,27.783546 c -0.200468,0.01726 -0.411653,0.0846 -0.632812,0.212891 -1.904098,1.104625 0.228304,3.644645 1.193359,5.324218 -5.846207,6.098488 -6.267978,13.414365 -0.572266,22.912111 0.428463,0.668721 -0.245765,1.534479 -0.767578,1.667969 -5.142959,1.315672 -19.493706,-7.490901 -20.419922,1.626953 -0.640128,6.301553 12.568485,8.975164 23.554688,0.816406 0.427617,-0.248082 0.691963,-0.05472 0.564453,0.402344 -1.24136,4.449392 -20.7787,11.508733 -13.873047,18.990234 6.094934,6.791309 14.94673,-2.641212 16.123047,-17.568359 0.263748,-0.989056 1.121958,-0.721865 1.416016,0.380859 1.601126,6.494861 -6.988375,19.899699 2.449218,20.673828 11.184769,0 1.478874,-13.902579 2.560547,-20.113281 0.294058,-1.102723 1.078048,-1.926551 1.341797,-0.9375 2.949305,10.009437 11.600488,22.428153 18.138672,15.005859 8.165001,-9.221057 -11.673645,-8.897889 -13.746094,-15.759765 -0.137185,-0.454258 0.41418,-1.060582 0.841797,-0.8125 10.54296,5.542141 21.211008,3.610947 20.580077,-1.763672 -0.803064,-6.840991 -7.567307,-5.373077 -20.140624,-1.736328 -0.375897,0.108721 -1.048598,-0.548329 -0.841797,-0.871094 5.695716,-9.497806 5.623549,-16.813625 -0.222656,-22.91211 0.965055,-1.67957 3.097459,-4.219595 1.19336,-5.324219 -1.76927,-1.026402 -2.853211,1.83929 -3.613282,3.162109 -1.891137,-0.55715 -4.215196,-0.880859 -6.238281,-0.880859 -2.039,0 -4.0075,0.351576 -5.908203,0.878906 -0.665058,-1.157453 -1.577198,-3.49581 -2.980469,-3.375 z"
       id="path1272"
       inkscape:connector-curvature="0" />
    <path
       style="display:inline;opacity:1;fill:#ffffff;fill-opacity:1;stroke:none;stroke-width:0.41990086"
       d="M 45.220703 26.283203 C 45.020235 26.300463 44.80905 26.367798 44.587891 26.496094 C 42.683793 27.600719 44.816195 30.140739 45.78125 31.820312 C 39.935043 37.918799 39.513272 45.234676 45.208984 54.732422 C 45.637447 55.401143 44.963219 56.266901 44.441406 56.400391 C 39.298447 57.716063 24.9477 48.90949 24.021484 58.027344 C 23.381356 64.328897 36.589969 67.002508 47.576172 58.84375 C 48.003789 58.595668 48.268135 58.789028 48.140625 59.246094 C 46.899265 63.695486 27.361925 70.754827 34.267578 78.236328 C 40.362512 85.027637 49.214308 75.595116 50.390625 60.667969 C 50.654373 59.678913 51.512583 59.946104 51.806641 61.048828 C 53.407767 67.543689 44.818266 80.948527 54.255859 81.722656 C 65.440628 81.722656 55.734733 67.820077 56.816406 61.609375 C 57.110464 60.506652 57.894454 59.682824 58.158203 60.671875 C 61.107508 70.681312 69.758691 83.100028 76.296875 75.677734 C 84.461877 66.456677 64.62323 66.779845 62.550781 59.917969 C 62.413596 59.463711 62.964961 58.857387 63.392578 59.105469 C 73.935538 64.64761 84.603587 62.716416 83.972656 57.341797 C 83.169592 50.500806 76.405348 51.96872 63.832031 55.605469 C 63.456134 55.71419 62.783433 55.05714 62.990234 54.734375 C 68.68595 45.236569 68.613783 37.92075 62.767578 31.822266 C 63.732633 30.142696 65.865037 27.602671 63.960938 26.498047 C 62.191668 25.471645 61.107727 28.337337 60.347656 29.660156 C 58.456519 29.103006 56.13246 28.779297 54.109375 28.779297 C 52.070375 28.779297 50.101875 29.130873 48.201172 29.658203 C 47.536114 28.50075 46.623974 26.162393 45.220703 26.283203 z M 48.474609 34.894531 A 1.5124096 1.5124096 0 0 1 49.986328 36.40625 A 1.5124096 1.5124096 0 0 1 48.474609 37.919922 A 1.5124096 1.5124096 0 0 1 46.960938 36.40625 A 1.5124096 1.5124096 0 0 1 48.474609 34.894531 z M 60.507812 34.941406 A 1.5124096 1.5124096 0 0 1 62.019531 36.453125 A 1.5124096 1.5124096 0 0 1 60.507812 37.964844 A 1.5124096 1.5124096 0 0 1 58.996094 36.453125 A 1.5124096 1.5124096 0 0 1 60.507812 34.941406 z M 79.792969 55.396484 A 2.253797 2.253797 0 0 1 82.044922 57.650391 A 2.253797 2.253797 0 0 1 79.792969 59.90625 A 2.253797 2.253797 0 0 1 77.537109 57.650391 A 2.253797 2.253797 0 0 1 79.792969 55.396484 z M 73.037109 56.0625 A 1.6633115 1.6633115 0 0 1 74.701172 57.726562 A 1.6633115 1.6633115 0 0 1 73.037109 59.388672 A 1.6633115 1.6633115 0 0 1 71.375 57.726562 A 1.6633115 1.6633115 0 0 1 73.037109 56.0625 z M 66.875 56.425781 A 1.1515573 1.1515573 0 0 1 68.027344 57.578125 A 1.1515573 1.1515573 0 0 1 66.875 58.728516 A 1.1515573 1.1515573 0 0 1 65.724609 57.578125 A 1.1515573 1.1515573 0 0 1 66.875 56.425781 z M 29.449219 56.507812 A 2.253797 2.253797 0 0 1 31.705078 58.761719 A 2.253797 2.253797 0 0 1 29.449219 61.015625 A 2.253797 2.253797 0 0 1 27.195312 58.761719 A 2.253797 2.253797 0 0 1 29.449219 56.507812 z M 35.701172 57.992188 A 1.6633115 1.6633115 0 0 1 37.361328 59.654297 A 1.6633115 1.6633115 0 0 1 35.701172 61.318359 A 1.6633115 1.6633115 0 0 1 34.037109 59.654297 A 1.6633115 1.6633115 0 0 1 35.701172 57.992188 z M 41.119141 58.207031 A 1.1515573 1.1515573 0 0 1 42.271484 59.359375 A 1.1515573 1.1515573 0 0 1 41.119141 60.509766 A 1.1515573 1.1515573 0 0 1 39.966797 59.359375 A 1.1515573 1.1515573 0 0 1 41.119141 58.207031 z M 63.90625 64.515625 A 1.1515573 1.1515573 0 0 1 65.058594 65.667969 A 1.1515573 1.1515573 0 0 1 63.90625 66.820312 A 1.1515573 1.1515573 0 0 1 62.755859 65.667969 A 1.1515573 1.1515573 0 0 1 63.90625 64.515625 z M 46.611328 64.591797 A 1.1515573 1.1515573 0 0 1 47.761719 65.742188 A 1.1515573 1.1515573 0 0 1 46.611328 66.894531 A 1.1515573 1.1515573 0 0 1 45.458984 65.742188 A 1.1515573 1.1515573 0 0 1 46.611328 64.591797 z M 54.332031 64.591797 A 1.1515573 1.1515573 0 0 1 55.482422 65.742188 A 1.1515573 1.1515573 0 0 1 54.332031 66.894531 A 1.1515573 1.1515573 0 0 1 53.179688 65.742188 A 1.1515573 1.1515573 0 0 1 54.332031 64.591797 z M 67.617188 67.865234 A 1.6633115 1.6633115 0 0 1 69.283203 69.527344 A 1.6633115 1.6633115 0 0 1 67.617188 71.191406 A 1.6633115 1.6633115 0 0 1 65.955078 69.527344 A 1.6633115 1.6633115 0 0 1 67.617188 67.865234 z M 43.048828 68.310547 A 1.6633115 1.6633115 0 0 1 44.712891 69.974609 A 1.6633115 1.6633115 0 0 1 43.048828 71.636719 A 1.6633115 1.6633115 0 0 1 41.384766 69.974609 A 1.6633115 1.6633115 0 0 1 43.048828 68.310547 z M 54.626953 69.275391 A 1.6633115 1.6633115 0 0 1 56.291016 70.939453 A 1.6633115 1.6633115 0 0 1 54.626953 72.601562 A 1.6633115 1.6633115 0 0 1 52.964844 70.939453 A 1.6633115 1.6633115 0 0 1 54.626953 69.275391 z M 73.259766 70.466797 A 2.253797 2.253797 0 0 1 75.513672 72.71875 A 2.253797 2.253797 0 0 1 73.259766 74.974609 A 2.253797 2.253797 0 0 1 71.005859 72.71875 A 2.253797 2.253797 0 0 1 73.259766 70.466797 z M 38.521484 72.916016 A 2.253797 2.253797 0 0 1 40.775391 75.169922 A 2.253797 2.253797 0 0 1 38.521484 77.423828 A 2.253797 2.253797 0 0 1 36.267578 75.169922 A 2.253797 2.253797 0 0 1 38.521484 72.916016 z M 54.925781 74.771484 A 2.253797 2.253797 0 0 1 57.177734 77.025391 A 2.253797 2.253797 0 0 1 54.925781 79.279297 A 2.253797 2.253797 0 0 1 52.671875 77.025391 A 2.253797 2.253797 0 0 1 54.925781 74.771484 z "
       id="path921" />
    <path
       style="display:inline;opacity:1;fill:#572244;fill-opacity:0.80000001;stroke:none;stroke-width:0.41990086"
       d="m 48.084797,39.778677 c 4.828989,0.820642 8.570132,0.553791 12.024691,0 4.535135,0 5.122051,3.136381 5.122051,5.455708 0,4.619715 -4.433658,6.058967 -5.678689,6.04978 l -10.058553,-0.07487 c -3.26944,0.05568 -5.901669,-2.962876 -5.901669,-5.994443 0,-3.527095 1.761644,-5.436175 4.492169,-5.436175 z"
       id="path915" />
    <path
       style="display:inline;opacity:1;fill:#ffffff;fill-opacity:1;stroke:none;stroke-width:0.41990086"
       d="m 50.446441,42.190777 a 3.3124553,3.2660623 0 0 0 -3.312161,3.266588 3.3124553,3.2660623 0 0 0 3.312161,3.266589 3.3124553,3.2660623 0 0 0 3.313789,-3.266589 3.3124553,3.2660623 0 0 0 -3.313789,-3.266588 z"
       id="path913" />
    <path
       style="display:inline;opacity:1;fill:#ffffff;fill-opacity:1;stroke:none;stroke-width:0.41990086"
       d="m 58.250772,42.320985 a 3.3124553,3.2660623 0 0 0 -3.312161,3.264961 3.3124553,3.2660623 0 0 0 3.312161,3.266588 3.3124553,3.2660623 0 0 0 3.312161,-3.266588 3.3124553,3.2660623 0 0 0 -3.312161,-3.264961 z"
       id="path911" />
    <path
       style="display:inline;opacity:1;fill:#e4ffff;fill-opacity:0.80000001;stroke:none;stroke-width:0.41990086"
       d="m 50.480621,44.41733 a 1.0727838,1.0577588 0 0 1 1.072587,1.057939 1.0727838,1.0577588 0 0 1 -1.072587,1.057939 1.0727838,1.0577588 0 0 1 -1.072587,-1.057939 1.0727838,1.0577588 0 0 1 1.072587,-1.057939 z"
       id="path909" />
    <path
       style="display:inline;opacity:1;fill:#e4ffff;fill-opacity:0.80000001;stroke:none;stroke-width:0.41990086"
       d="m 58.283324,44.547538 a 1.0727838,1.0577588 0 0 1 1.074215,1.057938 1.0727838,1.0577588 0 0 1 -1.074215,1.05794 1.0727838,1.0577588 0 0 1 -1.072587,-1.05794 1.0727838,1.0577588 0 0 1 1.072587,-1.057938 z"
       id="path907" />
    <path
       inkscape:connector-curvature="0"
       style="display:inline;opacity:1;fill:#000000;fill-opacity:0.80000001;stroke:none;stroke-width:0.30539352"
       d="m 50.447255,44.357366 a 1.10027,1.0996783 0 0 1 1.1,1.099408 1.10027,1.0996783 0 0 1 -1.1,1.100592 1.10027,1.0996783 0 0 1 -1.099999,-1.100592 1.10027,1.0996783 0 0 1 1.099999,-1.099408 z"
       id="path919-3" />
    <path
       inkscape:connector-curvature="0"
       style="display:inline;opacity:1;fill:#000003;fill-opacity:0.80000001;stroke:none;stroke-width:0.30539355"
       d="m 58.250772,44.486759 a 1.1002703,1.0996783 0 0 1 1.1,1.099407 1.1002703,1.0996783 0 0 1 -1.1,1.100593 1.1002703,1.0996783 0 0 1 -1.099999,-1.100593 1.1002703,1.0996783 0 0 1 1.099999,-1.099407 z"
       id="path919-3-0" />
  </g>
</svg>
