<?xml version="1.0" encoding="UTF-8" standalone="no"?>
<svg
   xmlns:dc="http://purl.org/dc/elements/1.1/"
   xmlns:cc="http://creativecommons.org/ns#"
   xmlns:rdf="http://www.w3.org/1999/02/22-rdf-syntax-ns#"
   xmlns:svg="http://www.w3.org/2000/svg"
   xmlns="http://www.w3.org/2000/svg"
   xmlns:sodipodi="http://sodipodi.sourceforge.net/DTD/sodipodi-0.dtd"
   xmlns:inkscape="http://www.inkscape.org/namespaces/inkscape"
   width="48"
   height="48"
   viewBox="0 0 48 48"
   id="svg2"
   version="1.1"
   inkscape:version="0.48.5 r10040"
   sodipodi:docname="repo_bookmark.svg">
  <metadata
     id="metadata12">
    <rdf:RDF>
      <cc:Work
         rdf:about="">
        <dc:format>image/svg+xml</dc:format>
        <dc:type
           rdf:resource="http://purl.org/dc/dcmitype/StillImage" />
        <dc:title />
      </cc:Work>
    </rdf:RDF>
  </metadata>
  <defs
     id="defs10" />
  <sodipodi:namedview
     pagecolor="#ffffff"
     bordercolor="#666666"
     borderopacity="1"
     objecttolerance="10"
     gridtolerance="10"
     guidetolerance="10"
     inkscape:pageopacity="0"
     inkscape:pageshadow="2"
     inkscape:window-width="1920"
     inkscape:window-height="1025"
     id="namedview8"
     showgrid="true"
     inkscape:zoom="8"
     inkscape:cx="-3.8125"
     inkscape:cy="16.928932"
     inkscape:window-x="-2"
     inkscape:window-y="-3"
     inkscape:window-maximized="1"
     inkscape:current-layer="svg2">
    <inkscape:grid
       type="xygrid"
       id="grid2996" />
  </sodipodi:namedview>
  <path
     d="M0 0h48v48h-48z"
     fill="none"
     id="path4" />
  <g
     id="g3808"
     style="fill:#000000;fill-opacity:1">
    <path
       id="path6"
       d="M 24 8 C 18.22 8 13.1975 11.2725 10.6875 16.0625 C 4.6775 16.7125 -2.3684758e-15 21.81 0 28 C 0 34.63 5.37 40 12 40 L 30 40 L 30 26.4375 C 30 25.086946 31.018392 24 32.28125 24 L 43.71875 24 C 44.981607 24 46 25.086946 46 26.4375 L 46 36 C 47.252702 34.329677 48 32.247044 48 30 C 48 24.72 43.89875 20.4325 38.71875 20.0625 C 37.35875 13.1825 31.28 8 24 8 z "
       style="fill:#000000;fill-opacity:1" />
    <path
       id="path4-0"
       d="m 42.285743,26.000001 h -8.571428 c -0.947143,0 -1.705715,0.895 -1.705715,1.999999 L 32,44.000001 38,41 44,44.000001 V 28 c 0,-1.104999 -0.767143,-1.999999 -1.714286,-1.999999 z"
       inkscape:connector-curvature="0"
       style="fill:#000000;fill-opacity:1" />
  </g>
</svg>
