<?xml version="1.0" encoding="UTF-8" standalone="no"?>
<svg
   xmlns:dc="http://purl.org/dc/elements/1.1/"
   xmlns:cc="http://creativecommons.org/ns#"
   xmlns:rdf="http://www.w3.org/1999/02/22-rdf-syntax-ns#"
   xmlns:svg="http://www.w3.org/2000/svg"
   xmlns="http://www.w3.org/2000/svg"
   xmlns:sodipodi="http://sodipodi.sourceforge.net/DTD/sodipodi-0.dtd"
   xmlns:inkscape="http://www.inkscape.org/namespaces/inkscape"
   width="48"
   height="48"
   viewBox="0 0 48 48"
   id="svg2"
   version="1.1"
   inkscape:version="0.48.5 r10040"
   sodipodi:docname="submodule.svg">
  <metadata
     id="metadata12">
    <rdf:RDF>
      <cc:Work
         rdf:about="">
        <dc:format>image/svg+xml</dc:format>
        <dc:type
           rdf:resource="http://purl.org/dc/dcmitype/StillImage" />
        <dc:title></dc:title>
      </cc:Work>
    </rdf:RDF>
  </metadata>
  <defs
     id="defs10" />
  <sodipodi:namedview
     pagecolor="#ffffff"
     bordercolor="#666666"
     borderopacity="1"
     objecttolerance="10"
     gridtolerance="10"
     guidetolerance="10"
     inkscape:pageopacity="0"
     inkscape:pageshadow="2"
     inkscape:window-width="1920"
     inkscape:window-height="1025"
     id="namedview8"
     showgrid="true"
     inkscape:zoom="9.8333333"
     inkscape:cx="24"
     inkscape:cy="18.247267"
     inkscape:window-x="-2"
     inkscape:window-y="-3"
     inkscape:window-maximized="1"
     inkscape:current-layer="svg2">
    <inkscape:grid
       type="xygrid"
       id="grid2989" />
  </sodipodi:namedview>
  <path
     d="M0 0h48v48h-48z"
     fill="none"
     id="path6" />
  <g
     id="g3796">
    <path
       id="path4"
       d="M 8 8 C 5.79 8 4.03125 9.79 4.03125 12 L 4 36 C 4 38.21 5.79 40 8 40 L 22.0625 40 C 22.030543 39.837219 22 39.672656 22 39.5 L 22 24.5 C 22 23.11875 23.08025 22 24.40625 22 L 32.46875 22 L 34.5 24 L 43.59375 24 C 43.7289 24 43.870956 24.030833 44 24.0625 L 44 16 C 44 13.79 42.21 12 40 12 L 24 12 L 20 8 L 8 8 z " />
    <path
       id="path4-0"
       d="m 32,24 h -6 c -1.105,0 -1.99,0.895 -1.99,2 L 24,38 c 0,1.105 0.895,2 2,2 h 16 c 1.105,0 2,-0.895 2,-2 V 28 c 0,-1.105 -0.895,-2 -2,-2 h -8 l -2,-2 z"
       inkscape:connector-curvature="0" />
  </g>
</svg>
